<svg height="69" viewBox="0 0 187 69" width="187" xmlns="http://www.w3.org/2000/svg"><g fill="#d5d5d5" stroke-width="1.133874" transform="translate(-.176777 -11.440377)"><path d="m125.87233 43.607352v-3.962653h-11.01098v16.63015h11.01098v-3.962653h-5.46489v-2.306134h5.46489v-3.962653h-5.46489v-2.436057z"/><path d="m139.49801 49.445769q0-2.192452-1.20179-3.434841-1.25863-1.30735-3.63784-1.30735l-8.16891.0081v11.563151h5.58669l.008-8.696724q0-.389769.27608-.665856.27609-.276086.66586-.276086.38977 0 .66585.276086.27609.276087.27609.665856l-.008 8.696724h5.52985v-6.82908z"/><path d="m146.61942 54.269162q-.38977 0-.66586-.276087-.27608-.267966-.27608-.657735v-5.781576q0-.389769.27608-.665855.27609-.267966.66586-.267966.36541 0 .63337.251726.25985.243605.29233.609014 0 .194884.008 5.870897-.008.381649-.28421.649616-.26796.267966-.64961.267966zm-1.62404-9.565584q-2.35486 0-3.66221 1.680879-1.20178 1.550956-1.20178 4.060095 0 2.509139 1.20178 4.060095 1.30735 1.68088 3.66221 1.68088h2.55786q0 1.69712 0 1.908245 0 .609014-.29233.966302-.26796.316688-.65773.316688-.38165 0-.64962-.316688-.29232-.357288-.29232-.966302v-.552173h-4.83964q0 1.339831 1.04751 2.476658 1.14494 1.242389 2.85018 1.30735.0244 0 .10557 0 .065.0081.10556.0081h3.34552q.0487 0 .11368-.0081.0731 0 .10556 0 2.05441-.07308 3.36988-1.567196 1.23427-1.404793 1.23427-3.321158v-11.733675z"/><path d="m159.27068 44.7929h-5.56233v11.481949h5.56233zm0-3.451081h-5.56233v2.890788h5.56233z"/><path d="m172.88824 49.445769q0-2.192452-1.20179-3.434841-1.25863-1.30735-3.63785-1.30735l-8.16891.0081v11.563151h5.58669l.008-8.696724q0-.389769.27609-.665856.27608-.276086.66585-.276086.38977 0 .66586.276086.27609.276087.27609.665856l-.008 8.696724h5.52984v-6.82908z"/><path d="m180.05836 46.628063q.38977 0 .66586.284206.27608.276087.27608.665856v.544053h-1.88388v-.544053q0-.389769.27609-.665856.27608-.284206.66585-.284206zm.94194 6.772239q0 .389769-.27608.665855-.27609.276087-.66586.276087-.38977 0-.66585-.276087-.27609-.276086-.27609-.665855v-3.174995h7.47057q0-2.379216-1.24238-3.897691-1.33172-1.624038-3.65409-1.624038h-3.26432q-2.37921 0-3.69468 1.697119-1.20991 1.559077-1.20991 4.084456 0 2.5335 1.20991 4.092576 1.31547 1.69712 3.69468 1.69712h3.26432q2.11937 0 3.52416-1.502235 1.32359-1.404793 1.32359-3.256197h-5.53797z"/></g><g fill="#fff" transform="translate(-4.5 7.25)"><path d="m95.033195 7.9500732q.46875 0 .800782.3417969.332031.3320313.332031.8007813v.6542968h-2.265625v-.6542968q0-.46875.332031-.8007813.332031-.3417969.800781-.3417969zm1.132813 8.1445308q0 .46875-.332031.800782-.332032.332031-.800782.332031-.46875 0-.800781-.332031-.332031-.332032-.332031-.800782v-3.818359h8.984377q0-2.861328-1.49414-4.6874999-1.601565-1.953125-4.394534-1.953125h-3.925781q-2.861328 0-4.44336 2.0410156-1.455078 1.875-1.455078 4.9121093 0 3.046875 1.455078 4.921875 1.582032 2.041016 4.44336 2.041016h3.925781q2.548828 0 4.238284-1.806641 1.59179-1.689453 1.59179-3.916016h-6.660152z"/><path d="m110.3457 1.5926514h-6.68946v17.9589846h6.68946zm9.40429 4.0429687h-6.83594l-3.41796 6.9921879v.0098l3.3789 6.914063h6.83594l-3.37891-6.923828z"/><path d="m127.14257 5.743042h-6.68945v13.808594h6.68945zm0-4.1503906h-6.68945v3.4765625h6.68945z"/><path d="m141.83007 12.784058q-.94727-.800782-3.83789-1.660157-2.07031-.615234-2.73438-.9375-.57617-.2832028-.64453-.4394528-.0976-.1855468-.0976-.6933593 0-.2441407.12695-.3417969.16602-.1464844.58594-.1464844.44922 0 .53711.087891.0684.1269532.0879.6933594l.01.3710938h6.50391l-.01-.390625q-.0195-.9277344-.19531-1.40625-.21484-.5761719-1.11328-1.171875-.83984-.5761719-2.40234-.9179688-1.50391-.3320312-3.68164-.3320312-2.17774 0-3.83789.4101562-1.72852.4199219-2.47071 1.25-.78125.8398438-.78125 2.5488281 0 1.2304683.71289 2.1386723.69336.888671 3.64258 1.894531 3.35938 1.142578 3.69141 1.347656.16601.117188.16601.830078 0 .478516-.11718.566406-.16602.126954-.73243.126954-.44922 0-.54687-.146485-.13672-.185547-.14649-1.015625v-.390625h-6.49414l.0195.410156q.0684 1.542969.73243 2.34375.72265.898438 2.59765 1.396485 1.79688.478515 4.32617.478515 2.28516 0 3.90625-.449218 1.69922-.458985 2.44141-1.357422.77149-.917969.77149-2.636719 0-1.601562-1.01563-2.460937z"/><path d="m151.70312 16.88562q0 0-.01 0h-.01q-.71289 0-1.22071-.546875-.49804-.546875-.49804-1.318359 0-.78125.49804-1.328125.50782-.546875 1.22071-.546875h.0195.41992q0 3.232422 0 3.740234zm1.5625-11.2402343q-.0293 0-.12696 0-.0781-.00977-.12695-.00977h-3.92578q-2.24609 0-3.53516 1.3476563-1.09375 1.1425781-1.18164 3.4667966l5.54688-.03906v-1.3183572q0-.46875.33203-.8007813.33203-.3417969.80078-.3417969.45898 0 .73242.2148438.35156.2636719.35156.8300781 0-.029297 0 .5664063 0 .7421876 0 1.5624996h-3.82812v.0098q-.01 0-.0293 0-.01 0-.0195 0-1.94336 0-3.31055 1.230469-1.36718 1.230468-1.36718 2.978515 0 1.738282 1.36718 2.978516 1.36719 1.230469 3.31055 1.230469.01 0 .0195 0 .0195 0 .0293 0h10.55664v-7.988282q0-2.3144526-1.50391-4.0136714-1.59179-1.8164062-4.09179-1.9042969z"/><path d="m173.54882 12.784058q-.94727-.800782-3.83789-1.660157-2.07031-.615234-2.73438-.9375-.57617-.2832028-.64453-.4394528-.0976-.1855468-.0976-.6933593 0-.2441407.12695-.3417969.16602-.1464844.58594-.1464844.44922 0 .53711.087891.0684.1269532.0879.6933594l.01.3710938h6.50391l-.01-.390625q-.0195-.9277344-.19531-1.40625-.21484-.5761719-1.11328-1.171875-.83984-.5761719-2.40234-.9179688-1.50391-.3320312-3.68164-.3320312-2.17774 0-3.83789.4101562-1.72852.4199219-2.47071 1.25-.78125.8398438-.78125 2.5488281 0 1.2304683.71289 2.1386723.69336.888671 3.64258 1.894531 3.35938 1.142578 3.69141 1.347656.16601.117188.16601.830078 0 .478516-.11718.566406-.16602.126954-.73243.126954-.44922 0-.54687-.146485-.13672-.185547-.14649-1.015625v-.390625h-6.49414l.0195.410156q.0684 1.542969.73243 2.34375.72265.898438 2.59765 1.396485 1.79688.478515 4.32617.478515 2.28516 0 3.90625-.449218 1.69922-.458985 2.44141-1.357422.77149-.917969.77149-2.636719 0-1.601562-1.01563-2.460937z"/><path d="m175.29687 13.858276q0 2.626953 1.44531 4.121094 1.51367 1.572266 4.375 1.572266l9.82422-.0098v-13.9062159h-6.71875l-.01 10.4589839q0 .46875-.33203.800782-.33203.341797-.80078.341797-.46875 0-.80078-.341797-.33203-.332032-.33203-.800782l.01-10.4589839h-6.65039v8.2226559z"/><path d="m71.653595-.47963142v4.76562502h6.552734v15.2343754h6.679688v-15.2343754h6.552734v-4.76562502z"/></g></svg>