<?xml version="1.0" encoding="UTF-8"?>
<!DOCTYPE svg PUBLIC "-//W3C//DTD SVG 1.1//EN" "http://www.w3.org/Graphics/SVG/1.1/DTD/svg11.dtd">
<svg xmlns="http://www.w3.org/2000/svg" version="1.1" width="64px" height="64px" style="shape-rendering:geometricPrecision; text-rendering:geometricPrecision; image-rendering:optimizeQuality; fill-rule:evenodd; clip-rule:evenodd" xmlns:xlink="http://www.w3.org/1999/xlink">
<g><path style="opacity:0.604" fill="#f1f1f1" d="M 63.5,29.5 C 63.5,31.5 63.5,33.5 63.5,35.5C 62.7315,37.6674 61.7315,39.834 60.5,42C 55.7539,44.4068 51.2539,47.2401 47,50.5C 47.1276,53.4856 47.1276,56.4856 47,59.5C 45.874,60.9436 44.374,61.6102 42.5,61.5C 39.4193,60.9733 36.4193,60.14 33.5,59C 29.8751,53.5846 26.3751,48.0846 23,42.5C 19.7206,47.2223 15.8873,47.7223 11.5,44C 8.43241,38.7603 4.43241,34.2603 -0.5,30.5C -0.5,28.5 -0.5,26.5 -0.5,24.5C 4.40533,23.5546 9.40533,23.2213 14.5,23.5C 14.1697,16.4684 14.503,9.46843 15.5,2.5C 21.4478,1.3764 27.4478,1.20973 33.5,2C 34.1298,5.12919 34.7964,8.29585 35.5,11.5C 43.5783,12.6715 51.5783,14.1715 59.5,16C 60.7093,20.648 62.0426,25.148 63.5,29.5 Z"/></g>
<g><path style="opacity:1" fill="#090909" d="M 18.5,5.5 C 22.8333,5.5 27.1667,5.5 31.5,5.5C 31.2161,8.77659 31.5495,11.9433 32.5,15C 40.4682,16.6769 48.4682,18.1769 56.5,19.5C 57.0796,22.9755 57.9129,26.3088 59,29.5C 59.6667,32.1667 59.6667,34.8333 59,37.5C 55.0954,40.3977 50.9287,42.8977 46.5,45C 42.5141,48.426 41.5141,52.5926 43.5,57.5C 40.8333,57.1667 38.1667,56.8333 35.5,56.5C 33.3474,50.0324 30.0141,44.1991 25.5,39C 23.8333,38.3333 22.1667,38.3333 20.5,39C 19.4404,40.298 18.2737,41.4647 17,42.5C 16.5,42.3333 16,42.1667 15.5,42C 12.4318,37.2595 8.59844,33.0928 4,29.5C 3.83333,29.1667 3.66667,28.8333 3.5,28.5C 8.45604,27.5059 13.456,27.1725 18.5,27.5C 18.5,20.1667 18.5,12.8333 18.5,5.5 Z"/></g>
<g><path style="opacity:1" fill="#d8d8d8" d="M 23.5,19.5 C 24.8333,19.5 26.1667,19.5 27.5,19.5C 27.6653,23.1817 27.4986,26.8484 27,30.5C 25.9887,31.3366 24.8221,31.67 23.5,31.5C 23.5,27.5 23.5,23.5 23.5,19.5 Z"/></g>
<g><path style="opacity:1" fill="#c2c2c2" d="M 34.5,19.5 C 36.1667,19.5 37.8333,19.5 39.5,19.5C 39.6653,23.1817 39.4986,26.8484 39,30.5C 37.6667,31.8333 36.3333,31.8333 35,30.5C 34.5014,26.8484 34.3347,23.1817 34.5,19.5 Z"/></g>
</svg>
